<svg width="22" height="20" viewBox="0 0 22 20" fill="none" xmlns="http://www.w3.org/2000/svg">
<path d="M2.77 9.28125C2.32518 8.83938 1.97276 8.31341 1.73326 7.73397C1.49376 7.15453 1.37197 6.53322 1.375 5.90625C1.375 4.63818 1.87874 3.42205 2.7754 2.5254C3.67205 1.62874 4.88818 1.125 6.15625 1.125C7.93375 1.125 9.48625 2.0925 10.3075 3.5325H11.5675C11.985 2.80019 12.5891 2.1916 13.3183 1.7687C14.0475 1.3458 14.8758 1.12369 15.7188 1.125C16.9868 1.125 18.2029 1.62874 19.0996 2.5254C19.9963 3.42205 20.5 4.63818 20.5 5.90625C20.5 7.2225 19.9375 8.4375 19.105 9.28125L10.9375 17.4375L2.77 9.28125ZM19.8925 10.08C20.9612 9 21.625 7.5375 21.625 5.90625C21.625 4.33981 21.0027 2.83754 19.8951 1.7299C18.7875 0.622263 17.2852 -6.7232e-07 15.7188 -6.7232e-07C13.75 -6.7232e-07 12.0063 0.956249 10.9375 2.44125C10.392 1.68356 9.67368 1.06686 8.84216 0.642293C8.01065 0.21773 7.08988 -0.00245582 6.15625 -6.7232e-07C4.58982 -6.7232e-07 3.08754 0.622263 1.9799 1.7299C0.872264 2.83754 0.25 4.33981 0.25 5.90625C0.25 7.5375 0.91375 9 1.9825 10.08L10.9375 19.035L19.8925 10.08Z" fill="#8184FF"/>
</svg>
