<svg width="18" height="22" viewBox="0 0 18 22" fill="none" xmlns="http://www.w3.org/2000/svg">
<path d="M8.99991 0.4375C6.87089 0.4375 4.82906 1.28325 3.32361 2.7887C1.81816 4.29415 0.972412 6.33597 0.972412 8.465V9.05C1.29741 13.4483 4.94825 16.9854 8.99991 21.5625C13.2303 16.785 17.0274 13.1667 17.0274 8.465C17.0274 6.33597 16.1817 4.29415 14.6762 2.7887C13.1708 1.28325 11.1289 0.4375 8.99991 0.4375ZM8.99991 4.60833C9.76399 4.60833 10.5109 4.83498 11.1461 5.25959C11.7814 5.6842 12.2764 6.2877 12.5685 6.99372C12.8607 7.69974 12.9368 8.47655 12.7874 9.22587C12.6379 9.97518 12.2696 10.6633 11.7289 11.2032C11.1882 11.7431 10.4996 12.1105 9.75004 12.259C9.00051 12.4074 8.22381 12.3301 7.5182 12.037C6.81259 11.7438 6.20979 11.248 5.78607 10.6121C5.36235 9.9763 5.13676 9.22908 5.13783 8.465C5.13926 7.44165 5.54679 6.46071 6.27092 5.7376C6.99505 5.01449 7.97656 4.60833 8.99991 4.60833Z" stroke="#8184FF" stroke-width="0.5" stroke-linecap="round" stroke-linejoin="round"/>
</svg>
