<svg width="22" height="22" viewBox="0 0 22 22" fill="none" xmlns="http://www.w3.org/2000/svg">
<path d="M20.625 5.4375H15.8125V5C15.8125 3.72365 15.3055 2.49957 14.403 1.59705C13.5004 0.69453 12.2764 0.1875 11 0.1875C9.72365 0.1875 8.49957 0.69453 7.59705 1.59705C6.69453 2.49957 6.1875 3.72365 6.1875 5V5.4375H1.375C1.0269 5.4375 0.693064 5.57578 0.446922 5.82192C0.200781 6.06806 0.0625 6.4019 0.0625 6.75V19.875C0.0625 20.2231 0.200781 20.5569 0.446922 20.8031C0.693064 21.0492 1.0269 21.1875 1.375 21.1875H20.625C20.9731 21.1875 21.3069 21.0492 21.5531 20.8031C21.7992 20.5569 21.9375 20.2231 21.9375 19.875V6.75C21.9375 6.4019 21.7992 6.06806 21.5531 5.82192C21.3069 5.57578 20.9731 5.4375 20.625 5.4375ZM7.0625 5C7.0625 3.95571 7.47734 2.95419 8.21577 2.21577C8.95419 1.47734 9.95571 1.0625 11 1.0625C12.0443 1.0625 13.0458 1.47734 13.7842 2.21577C14.5227 2.95419 14.9375 3.95571 14.9375 5V5.4375H7.0625V5ZM21.0625 19.875C21.0625 19.991 21.0164 20.1023 20.9344 20.1844C20.8523 20.2664 20.741 20.3125 20.625 20.3125H1.375C1.25897 20.3125 1.14769 20.2664 1.06564 20.1844C0.983594 20.1023 0.9375 19.991 0.9375 19.875V6.75C0.9375 6.63397 0.983594 6.52269 1.06564 6.44064C1.14769 6.35859 1.25897 6.3125 1.375 6.3125H6.1875V8.5C6.1875 8.61603 6.23359 8.72731 6.31564 8.80936C6.39769 8.89141 6.50897 8.9375 6.625 8.9375C6.74103 8.9375 6.85231 8.89141 6.93436 8.80936C7.01641 8.72731 7.0625 8.61603 7.0625 8.5V6.3125H14.9375V8.5C14.9375 8.61603 14.9836 8.72731 15.0656 8.80936C15.1477 8.89141 15.259 8.9375 15.375 8.9375C15.491 8.9375 15.6023 8.89141 15.6844 8.80936C15.7664 8.72731 15.8125 8.61603 15.8125 8.5V6.3125H20.625C20.741 6.3125 20.8523 6.35859 20.9344 6.44064C21.0164 6.52269 21.0625 6.63397 21.0625 6.75V19.875Z" fill="#8184FF"/>
</svg>
