<svg width="98" height="19" viewBox="0 0 98 19" fill="none" xmlns="http://www.w3.org/2000/svg">
<path d="M8.99962 1L11.2248 7.35578L18 7.49355L12.5999 11.559L14.5622 18L8.99885 14.1561L3.43704 18L5.39931 11.559L0 7.49355L6.7752 7.35654L8.99962 1Z" fill="#47405A"/>
<path d="M28.9996 1L31.2248 7.35578L38 7.49355L32.5999 11.559L34.5622 18L28.9989 14.1561L23.437 18L25.3993 11.559L20 7.49355L26.7752 7.35654L28.9996 1Z" fill="#47405A"/>
<path d="M48.9996 1L51.2248 7.35578L58 7.49355L52.5999 11.559L54.5622 18L48.9989 14.1561L43.437 18L45.3993 11.559L40 7.49355L46.7752 7.35654L48.9996 1Z" fill="#47405A"/>
<path d="M68.9996 1L71.2248 7.35578L78 7.49355L72.5999 11.559L74.5622 18L68.9989 14.1561L63.437 18L65.3993 11.559L60 7.49355L66.7752 7.35654L68.9996 1Z" fill="#47405A"/>
<path d="M88.9996 1L91.2248 7.35578L98 7.49355L92.5999 11.559L94.5622 18L88.9989 14.1561L83.437 18L85.3993 11.559L80 7.49355L86.7752 7.35654L88.9996 1Z" fill="#47405A"/>
</svg>
